<svg width="121" height="15" viewBox="0 0 121 15" fill="none" xmlns="http://www.w3.org/2000/svg">
<circle cx="7" cy="7" r="6" stroke="#212121" stroke-width="2"/>
<circle cx="7" cy="7" r="3" fill="#212121"/>
<path d="M20.7585 11.5V2.77273H24.2017C24.8636 2.77273 25.4276 2.89915 25.8935 3.15199C26.3594 3.40199 26.7145 3.75 26.9588 4.19602C27.206 4.6392 27.3295 5.15057 27.3295 5.73011C27.3295 6.30966 27.2045 6.82102 26.9545 7.2642C26.7045 7.70739 26.3423 8.05256 25.8679 8.29972C25.3963 8.54687 24.8253 8.67045 24.1548 8.67045H21.9602V7.19176H23.8565C24.2116 7.19176 24.5043 7.13068 24.7344 7.00852C24.9673 6.88352 25.1406 6.71165 25.2543 6.4929C25.3707 6.27131 25.429 6.01705 25.429 5.73011C25.429 5.44034 25.3707 5.1875 25.2543 4.97159C25.1406 4.75284 24.9673 4.58381 24.7344 4.46449C24.5014 4.34233 24.206 4.28125 23.848 4.28125H22.6037V11.5H20.7585ZM30.1893 2.77273V11.5H28.374V2.77273H30.1893ZM33.39 11.6236C32.9724 11.6236 32.6002 11.5511 32.2735 11.4062C31.9468 11.2585 31.6883 11.0412 31.4979 10.7543C31.3104 10.4645 31.2167 10.1037 31.2167 9.67188C31.2167 9.30824 31.2834 9.00284 31.417 8.75568C31.5505 8.50852 31.7323 8.30966 31.9624 8.15909C32.1925 8.00852 32.4539 7.89489 32.7465 7.81818C33.042 7.74148 33.3516 7.6875 33.6755 7.65625C34.0562 7.61648 34.363 7.57955 34.5959 7.54545C34.8289 7.50852 34.9979 7.45455 35.103 7.38352C35.2082 7.3125 35.2607 7.20739 35.2607 7.06818V7.04261C35.2607 6.77273 35.1755 6.56392 35.005 6.41619C34.8374 6.26847 34.5988 6.1946 34.2891 6.1946C33.9624 6.1946 33.7025 6.26705 33.5093 6.41193C33.3161 6.55398 33.1883 6.73295 33.1258 6.94886L31.4468 6.8125C31.532 6.41477 31.6996 6.07102 31.9496 5.78125C32.1996 5.48864 32.5221 5.2642 32.917 5.10795C33.3147 4.94886 33.7749 4.86932 34.2976 4.86932C34.6613 4.86932 35.0093 4.91193 35.3417 4.99716C35.6769 5.08239 35.9738 5.21449 36.2323 5.39347C36.4937 5.57244 36.6996 5.80256 36.8502 6.08381C37.0008 6.36222 37.0761 6.69602 37.0761 7.08523V11.5H35.3545V10.5923H35.3033C35.1982 10.7969 35.0576 10.9773 34.8814 11.1335C34.7053 11.2869 34.4937 11.4077 34.2465 11.4957C33.9993 11.581 33.7138 11.6236 33.39 11.6236ZM33.9099 10.3707C34.1769 10.3707 34.4127 10.3182 34.6172 10.2131C34.8218 10.1051 34.9823 9.96023 35.0988 9.77841C35.2153 9.59659 35.2735 9.39062 35.2735 9.16051V8.46591C35.2167 8.50284 35.1386 8.53693 35.0391 8.56818C34.9425 8.59659 34.8332 8.62358 34.711 8.64915C34.5888 8.67187 34.4667 8.69318 34.3445 8.71307C34.2224 8.73011 34.1116 8.74574 34.0121 8.75994C33.7991 8.79119 33.613 8.84091 33.4539 8.90909C33.2948 8.97727 33.1712 9.0696 33.0832 9.18608C32.9951 9.29972 32.9511 9.44176 32.9511 9.61222C32.9511 9.85938 33.0405 10.0483 33.2195 10.179C33.4013 10.3068 33.6314 10.3707 33.9099 10.3707ZM41.3218 11.6278C40.6514 11.6278 40.0747 11.4858 39.5917 11.2017C39.1116 10.9148 38.7423 10.517 38.4837 10.0085C38.2281 9.5 38.1002 8.91477 38.1002 8.25284C38.1002 7.58239 38.2295 6.99432 38.488 6.48864C38.7494 5.98011 39.1201 5.58381 39.6002 5.29972C40.0803 5.01278 40.6514 4.86932 41.3133 4.86932C41.8843 4.86932 42.3843 4.97301 42.8133 5.1804C43.2423 5.38778 43.5818 5.67898 43.8318 6.05398C44.0818 6.42898 44.2195 6.86932 44.2451 7.375H42.532C42.4837 7.0483 42.3559 6.78551 42.1485 6.58665C41.944 6.38494 41.6755 6.28409 41.3431 6.28409C41.0619 6.28409 40.8161 6.3608 40.6059 6.5142C40.3985 6.66477 40.2366 6.88494 40.1201 7.17472C40.0036 7.46449 39.9454 7.81534 39.9454 8.22727C39.9454 8.64489 40.0022 9 40.1159 9.29261C40.2323 9.58523 40.3957 9.80824 40.6059 9.96165C40.8161 10.1151 41.0619 10.1918 41.3431 10.1918C41.5505 10.1918 41.7366 10.1491 41.9014 10.0639C42.069 9.97869 42.2068 9.85511 42.3147 9.69318C42.4255 9.52841 42.498 9.33097 42.532 9.10085H44.2451C44.2167 9.60085 44.0803 10.0412 43.836 10.4219C43.5945 10.7997 43.2607 11.0952 42.8346 11.3082C42.4085 11.5213 41.9042 11.6278 41.3218 11.6278ZM48.2704 11.6278C47.5971 11.6278 47.0175 11.4915 46.5317 11.2188C46.0488 10.9432 45.6766 10.554 45.4152 10.0511C45.1539 9.54545 45.0232 8.94744 45.0232 8.2571C45.0232 7.58381 45.1539 6.9929 45.4152 6.48438C45.6766 5.97585 46.0445 5.57955 46.5189 5.29545C46.9962 5.01136 47.5559 4.86932 48.1979 4.86932C48.6297 4.86932 49.0317 4.93892 49.4039 5.07812C49.7789 5.21449 50.1056 5.42045 50.384 5.69602C50.6652 5.97159 50.884 6.31818 51.0402 6.7358C51.1965 7.15057 51.2746 7.63636 51.2746 8.19318V8.69176H45.7476V7.56676H49.5658C49.5658 7.3054 49.509 7.07386 49.3954 6.87216C49.2817 6.67045 49.124 6.51278 48.9223 6.39915C48.7235 6.28267 48.4919 6.22443 48.2277 6.22443C47.9522 6.22443 47.7079 6.28835 47.4948 6.41619C47.2846 6.54119 47.1198 6.71023 47.0005 6.9233C46.8812 7.13352 46.8201 7.3679 46.8172 7.62642V8.69602C46.8172 9.01989 46.8769 9.29972 46.9962 9.53551C47.1184 9.77131 47.2902 9.95312 47.5118 10.081C47.7334 10.2088 47.9962 10.2727 48.3002 10.2727C48.5019 10.2727 48.6865 10.2443 48.8542 10.1875C49.0218 10.1307 49.1652 10.0455 49.2846 9.93182C49.4039 9.81818 49.4948 9.67898 49.5573 9.5142L51.2363 9.625C51.151 10.0284 50.9763 10.3807 50.7121 10.6818C50.4508 10.9801 50.1127 11.2131 49.6979 11.3807C49.286 11.5455 48.8101 11.6278 48.2704 11.6278ZM54.1546 7.71591V11.5H52.3393V2.77273H54.1035V6.10938H54.1802C54.3279 5.72301 54.5665 5.42045 54.8961 5.2017C55.2256 4.98011 55.639 4.86932 56.1362 4.86932C56.5907 4.86932 56.987 4.96875 57.3251 5.16761C57.666 5.36364 57.9302 5.64631 58.1177 6.01562C58.308 6.3821 58.4018 6.82102 58.3989 7.33239V11.5H56.5836V7.65625C56.5864 7.25284 56.4842 6.93892 56.2768 6.71449C56.0722 6.49006 55.7853 6.37784 55.416 6.37784C55.1688 6.37784 54.9501 6.4304 54.7597 6.53551C54.5722 6.64062 54.4245 6.79403 54.3165 6.99574C54.2114 7.1946 54.1575 7.43466 54.1546 7.71591ZM62.6649 11.6278C62.003 11.6278 61.4306 11.4872 60.9476 11.206C60.4675 10.9219 60.0968 10.527 59.8354 10.0213C59.574 9.51278 59.4434 8.9233 59.4434 8.25284C59.4434 7.5767 59.574 6.9858 59.8354 6.48011C60.0968 5.97159 60.4675 5.5767 60.9476 5.29545C61.4306 5.01136 62.003 4.86932 62.6649 4.86932C63.3269 4.86932 63.8979 5.01136 64.378 5.29545C64.861 5.5767 65.2331 5.97159 65.4945 6.48011C65.7559 6.9858 65.8865 7.5767 65.8865 8.25284C65.8865 8.9233 65.7559 9.51278 65.4945 10.0213C65.2331 10.527 64.861 10.9219 64.378 11.206C63.8979 11.4872 63.3269 11.6278 62.6649 11.6278ZM62.6735 10.2216C62.9746 10.2216 63.226 10.1364 63.4277 9.96591C63.6294 9.79261 63.7814 9.55682 63.8837 9.25852C63.9888 8.96023 64.0414 8.62074 64.0414 8.24006C64.0414 7.85938 63.9888 7.51989 63.8837 7.22159C63.7814 6.9233 63.6294 6.6875 63.4277 6.5142C63.226 6.34091 62.9746 6.25426 62.6735 6.25426C62.3695 6.25426 62.1138 6.34091 61.9064 6.5142C61.7019 6.6875 61.547 6.9233 61.4419 7.22159C61.3397 7.51989 61.2885 7.85938 61.2885 8.24006C61.2885 8.62074 61.3397 8.96023 61.4419 9.25852C61.547 9.55682 61.7019 9.79261 61.9064 9.96591C62.1138 10.1364 62.3695 10.2216 62.6735 10.2216ZM68.7623 2.77273V11.5H66.9469V2.77273H68.7623ZM72.5084 11.6065C72.0112 11.6065 71.561 11.4787 71.1575 11.223C70.757 10.9645 70.4388 10.5852 70.203 10.0852C69.97 9.58239 69.8536 8.96591 69.8536 8.2358C69.8536 7.4858 69.9743 6.86222 70.2158 6.36506C70.4573 5.86506 70.7783 5.49148 71.1789 5.24432C71.5823 4.99432 72.024 4.86932 72.5041 4.86932C72.8706 4.86932 73.176 4.93182 73.4203 5.05682C73.6675 5.17898 73.8664 5.33239 74.0169 5.51705C74.1703 5.69886 74.2868 5.87784 74.3664 6.05398H74.4217V2.77273H76.2328V11.5H74.4431V10.4517H74.3664C74.2811 10.6335 74.1604 10.8139 74.0041 10.9929C73.8507 11.169 73.6504 11.3153 73.4033 11.4318C73.159 11.5483 72.8607 11.6065 72.5084 11.6065ZM73.0837 10.1619C73.3763 10.1619 73.6235 10.0824 73.8252 9.9233C74.0297 9.76136 74.186 9.53551 74.2939 9.24574C74.4047 8.95597 74.4601 8.61648 74.4601 8.22727C74.4601 7.83807 74.4061 7.5 74.2982 7.21307C74.1902 6.92614 74.034 6.70455 73.8294 6.5483C73.6249 6.39205 73.3763 6.31392 73.0837 6.31392C72.7854 6.31392 72.534 6.39489 72.3294 6.55682C72.1249 6.71875 71.97 6.94318 71.8649 7.23011C71.7598 7.51705 71.7073 7.84943 71.7073 8.22727C71.7073 8.60795 71.7598 8.9446 71.8649 9.23722C71.9729 9.52699 72.1277 9.75426 72.3294 9.91903C72.534 10.081 72.7854 10.1619 73.0837 10.1619ZM80.5883 11.6278C79.915 11.6278 79.3355 11.4915 78.8497 11.2188C78.3667 10.9432 77.9946 10.554 77.7332 10.0511C77.4718 9.54545 77.3412 8.94744 77.3412 8.2571C77.3412 7.58381 77.4718 6.9929 77.7332 6.48438C77.9946 5.97585 78.3625 5.57955 78.8369 5.29545C79.3142 5.01136 79.8738 4.86932 80.5159 4.86932C80.9477 4.86932 81.3497 4.93892 81.7218 5.07812C82.0968 5.21449 82.4235 5.42045 82.702 5.69602C82.9832 5.97159 83.202 6.31818 83.3582 6.7358C83.5145 7.15057 83.5926 7.63636 83.5926 8.19318V8.69176H78.0656V7.56676H81.8838C81.8838 7.3054 81.827 7.07386 81.7133 6.87216C81.5997 6.67045 81.442 6.51278 81.2403 6.39915C81.0414 6.28267 80.8099 6.22443 80.5457 6.22443C80.2701 6.22443 80.0258 6.28835 79.8128 6.41619C79.6025 6.54119 79.4378 6.71023 79.3184 6.9233C79.1991 7.13352 79.138 7.3679 79.1352 7.62642V8.69602C79.1352 9.01989 79.1949 9.29972 79.3142 9.53551C79.4363 9.77131 79.6082 9.95312 79.8298 10.081C80.0514 10.2088 80.3142 10.2727 80.6182 10.2727C80.8199 10.2727 81.0045 10.2443 81.1721 10.1875C81.3397 10.1307 81.4832 10.0455 81.6025 9.93182C81.7218 9.81818 81.8128 9.67898 81.8753 9.5142L83.5542 9.625C83.469 10.0284 83.2943 10.3807 83.0301 10.6818C82.7687 10.9801 82.4307 11.2131 82.0159 11.3807C81.6039 11.5455 81.1281 11.6278 80.5883 11.6278ZM84.6572 11.5V4.95455H86.4172V6.09659H86.4854C86.6047 5.69034 86.805 5.38352 87.0862 5.17614C87.3675 4.96591 87.6913 4.8608 88.0578 4.8608C88.1487 4.8608 88.2467 4.86648 88.3518 4.87784C88.457 4.8892 88.5493 4.90483 88.6288 4.92472V6.53551C88.5436 6.50994 88.4257 6.48722 88.2751 6.46733C88.1246 6.44744 87.9868 6.4375 87.8618 6.4375C87.5947 6.4375 87.3561 6.49574 87.1459 6.61222C86.9385 6.72585 86.7737 6.88494 86.6516 7.08949C86.5322 7.29403 86.4726 7.52983 86.4726 7.79688V11.5H84.6572ZM92.1388 11.5V2.77273H93.984V9.97869H97.7255V11.5H92.1388ZM101.751 11.6278C101.089 11.6278 100.516 11.4872 100.033 11.206C99.5533 10.9219 99.1825 10.527 98.9212 10.0213C98.6598 9.51278 98.5291 8.9233 98.5291 8.25284C98.5291 7.5767 98.6598 6.9858 98.9212 6.48011C99.1825 5.97159 99.5533 5.5767 100.033 5.29545C100.516 5.01136 101.089 4.86932 101.751 4.86932C102.413 4.86932 102.984 5.01136 103.464 5.29545C103.947 5.5767 104.319 5.97159 104.58 6.48011C104.842 6.9858 104.972 7.5767 104.972 8.25284C104.972 8.9233 104.842 9.51278 104.58 10.0213C104.319 10.527 103.947 10.9219 103.464 11.206C102.984 11.4872 102.413 11.6278 101.751 11.6278ZM101.759 10.2216C102.06 10.2216 102.312 10.1364 102.514 9.96591C102.715 9.79261 102.867 9.55682 102.969 9.25852C103.075 8.96023 103.127 8.62074 103.127 8.24006C103.127 7.85938 103.075 7.51989 102.969 7.22159C102.867 6.9233 102.715 6.6875 102.514 6.5142C102.312 6.34091 102.06 6.25426 101.759 6.25426C101.455 6.25426 101.2 6.34091 100.992 6.5142C100.788 6.6875 100.633 6.9233 100.528 7.22159C100.425 7.51989 100.374 7.85938 100.374 8.24006C100.374 8.62074 100.425 8.96023 100.528 9.25852C100.633 9.55682 100.788 9.79261 100.992 9.96591C101.2 10.1364 101.455 10.2216 101.759 10.2216ZM108.982 14.0909C108.394 14.0909 107.889 14.0099 107.469 13.848C107.051 13.6889 106.719 13.4716 106.472 13.196C106.224 12.9205 106.064 12.6108 105.99 12.267L107.669 12.0412C107.72 12.1719 107.801 12.294 107.912 12.4077C108.023 12.5213 108.169 12.6122 108.351 12.6804C108.536 12.7514 108.76 12.7869 109.024 12.7869C109.419 12.7869 109.744 12.6903 110 12.4972C110.259 12.3068 110.388 11.9872 110.388 11.5384V10.3409H110.311C110.232 10.5227 110.112 10.6946 109.953 10.8565C109.794 11.0185 109.59 11.1506 109.34 11.2528C109.09 11.3551 108.791 11.4062 108.445 11.4062C107.953 11.4062 107.506 11.2926 107.102 11.0653C106.702 10.8352 106.382 10.4844 106.144 10.0128C105.908 9.53835 105.79 8.93892 105.79 8.21449C105.79 7.47301 105.911 6.85369 106.152 6.35653C106.394 5.85937 106.715 5.48722 107.115 5.24006C107.519 4.9929 107.96 4.86932 108.44 4.86932C108.807 4.86932 109.114 4.93182 109.361 5.05682C109.608 5.17898 109.807 5.33239 109.957 5.51705C110.111 5.69886 110.229 5.87784 110.311 6.05398H110.379V4.95455H112.182V11.5639C112.182 12.1207 112.045 12.5866 111.773 12.9616C111.5 13.3366 111.122 13.6179 110.639 13.8054C110.159 13.9957 109.607 14.0909 108.982 14.0909ZM109.02 10.0426C109.313 10.0426 109.56 9.97017 109.761 9.82528C109.966 9.67756 110.122 9.46733 110.23 9.1946C110.341 8.91903 110.396 8.58949 110.396 8.20597C110.396 7.82244 110.342 7.49006 110.234 7.20881C110.126 6.92472 109.97 6.70455 109.766 6.5483C109.561 6.39205 109.313 6.31392 109.02 6.31392C108.722 6.31392 108.47 6.39489 108.266 6.55682C108.061 6.71591 107.906 6.9375 107.801 7.22159C107.696 7.50568 107.644 7.83381 107.644 8.20597C107.644 8.58381 107.696 8.91051 107.801 9.18608C107.909 9.45881 108.064 9.67045 108.266 9.82102C108.47 9.96875 108.722 10.0426 109.02 10.0426ZM116.464 11.6278C115.802 11.6278 115.229 11.4872 114.747 11.206C114.266 10.9219 113.896 10.527 113.634 10.0213C113.373 9.51278 113.242 8.9233 113.242 8.25284C113.242 7.5767 113.373 6.9858 113.634 6.48011C113.896 5.97159 114.266 5.5767 114.747 5.29545C115.229 5.01136 115.802 4.86932 116.464 4.86932C117.126 4.86932 117.697 5.01136 118.177 5.29545C118.66 5.5767 119.032 5.97159 119.293 6.48011C119.555 6.9858 119.685 7.5767 119.685 8.25284C119.685 8.9233 119.555 9.51278 119.293 10.0213C119.032 10.527 118.66 10.9219 118.177 11.206C117.697 11.4872 117.126 11.6278 116.464 11.6278ZM116.472 10.2216C116.774 10.2216 117.025 10.1364 117.227 9.96591C117.428 9.79261 117.58 9.55682 117.683 9.25852C117.788 8.96023 117.84 8.62074 117.84 8.24006C117.84 7.85938 117.788 7.51989 117.683 7.22159C117.58 6.9233 117.428 6.6875 117.227 6.5142C117.025 6.34091 116.774 6.25426 116.472 6.25426C116.168 6.25426 115.913 6.34091 115.705 6.5142C115.501 6.6875 115.346 6.9233 115.241 7.22159C115.139 7.51989 115.087 7.85938 115.087 8.24006C115.087 8.62074 115.139 8.96023 115.241 9.25852C115.346 9.55682 115.501 9.79261 115.705 9.96591C115.913 10.1364 116.168 10.2216 116.472 10.2216Z" fill="#212121"/>
</svg>
