<svg width="1555" height="461" viewBox="0 0 1555 461" fill="none" xmlns="http://www.w3.org/2000/svg">
<g clip-path="url(#clip0_70_121)">
<path d="M23.3897 73.5018C54.7756 38.3805 110.705 24.251 165.763 42.66C192.034 51.4443 216.858 68.0876 237.773 89.9871C263.804 119.41 275.054 141.836 286.989 170.762C291.662 184.261 295.028 198.289 296.858 212.609C305.087 276.99 293.902 334.382 280.999 375.243C274.519 395.763 267.513 412.411 262.048 424.071C259.311 429.91 256.947 434.526 255.21 437.779C254.341 439.406 253.628 440.697 253.101 441.631C252.837 442.098 252.62 442.477 252.453 442.764C252.37 442.908 252.299 443.03 252.241 443.128C252.213 443.177 252.187 443.22 252.165 443.258C252.154 443.276 252.143 443.295 252.134 443.31C252.129 443.318 252.122 443.329 252.12 443.333C252.106 443.338 251.616 443.062 222.004 425.501L252.108 443.353C242.248 459.979 220.776 465.464 204.15 455.604C187.791 445.902 182.218 424.956 191.439 408.448L191.879 407.682C191.873 407.692 191.868 407.701 191.863 407.709C191.855 407.724 191.848 407.734 191.846 407.738C191.842 407.745 191.85 407.731 191.869 407.698C191.91 407.628 192 407.472 192.135 407.233C192.405 406.754 192.857 405.94 193.461 404.808C194.67 402.544 196.484 399.015 198.666 394.36C203.039 385.031 208.844 371.28 214.248 354.165C225.115 319.753 233.997 272.917 227.423 221.484C226.92 217.552 226.246 213.667 225.414 209.838C210.843 218.458 193.012 227.292 173.32 233.281C135.048 244.921 85.4807 246.779 41.3614 210.69C18.192 191.738 3.34927 168.096 0.495186 141.736C-2.36403 115.327 7.40692 91.3871 23.3897 73.5018ZM390.868 3.61409C470.848 -10.9566 527.38 20.9564 562.44 55.9637C579.606 73.105 591.694 90.9454 599.488 104.402C603.413 111.179 606.327 116.98 608.313 121.219C609.307 123.342 610.075 125.085 610.624 126.376C610.899 127.021 611.119 127.555 611.287 127.969C611.371 128.175 611.441 128.352 611.499 128.497C611.528 128.569 611.554 128.635 611.576 128.692C611.587 128.72 611.598 128.747 611.607 128.771C611.612 128.783 611.619 128.8 611.621 128.806C611.626 128.823 611.402 128.928 579.122 141.454L611.634 128.839C618.626 146.859 609.686 167.137 591.665 174.13C573.654 181.118 553.389 172.191 546.386 154.19C546.388 154.195 546.393 154.21 546.397 154.218C546.403 154.234 546.408 154.25 546.413 154.263C546.423 154.288 546.431 154.307 546.436 154.318C546.434 154.314 546.431 154.308 546.429 154.302C546.401 154.234 546.328 154.054 546.208 153.771C545.967 153.206 545.541 152.232 544.924 150.914C543.686 148.271 541.699 144.293 538.915 139.487C533.292 129.779 524.732 117.234 512.979 105.498C490.197 82.7501 455.797 62.9372 403.414 72.4803C369.133 78.7258 352.174 91.6677 334.833 109.942C327.089 118.103 317.993 129.104 306.944 141.333C297.526 120.77 286.473 101.539 268.132 79.3328C273.086 73.6759 278.275 67.8499 284.056 61.7576C308.988 35.4838 338.608 13.1349 390.868 3.61409ZM143.565 109.048C111.207 98.2284 85.7996 108.715 75.585 120.145C70.7682 125.536 69.6726 130.357 70.0889 134.202C70.5109 138.097 73.0861 146.205 85.6817 156.508C105.681 172.867 128.352 173.791 152.952 166.309C168.365 161.622 182.808 154.027 194.533 146.687C179.471 128.36 161.193 114.942 143.565 109.048Z" fill="black"/>
<path d="M416.443 163.534C439.698 157.247 468.869 157.875 491.504 178.234H491.505C521.92 205.591 534.809 247.951 510.039 284.587C488.883 315.878 445.938 333.416 388.392 335.603C394.702 354.012 409.407 367.858 427.304 368.817H427.303C451.422 370.108 466.425 364.49 477.456 356.582C489.366 348.044 498.959 335.223 509.466 317.831C517.319 304.832 534.225 300.659 547.225 308.513C560.224 316.366 564.396 333.272 556.542 346.272C545.178 365.082 530.869 385.963 509.502 401.281C487.256 417.23 459.608 425.624 424.363 423.737H424.362C369.99 420.826 339.182 375.196 332.063 337.103L332.062 337.102C327.409 312.194 326.073 287.08 329.198 264.149C332.296 241.416 340.058 218.971 355.295 201.686C370.799 184.096 393.099 169.846 416.443 163.534ZM454.724 219.126C450.856 215.648 443.485 213.198 430.798 216.628C418.199 220.034 405.155 228.297 396.555 238.054V238.055C390.779 244.607 385.881 255.536 383.695 271.575C383.293 274.527 382.992 277.591 382.793 280.754C434.905 279.512 457.431 264.203 464.477 253.781C469.63 246.159 470.747 233.958 455.464 219.802L454.724 219.126Z" fill="black"/>
<path d="M699.996 305.859C699.996 292.414 699.977 276.505 698.141 261.124C696.235 245.145 692.737 233.467 688.197 226.736C680.407 215.187 659.556 208.087 640.367 220.554C633.785 224.83 630.633 229.086 628.788 233.193C626.757 237.713 625.558 243.771 625.506 252.521C625.452 261.444 626.56 271.458 628.101 283.784C629.481 294.815 631.206 307.677 631.976 320.892L632.117 323.539V323.54C633.68 356.042 632.242 387.343 632.153 387.145L632.149 387.032L632.139 387.741C631.763 402.601 619.6 414.532 604.649 414.532C589.699 414.532 577.534 402.601 577.158 387.741L577.149 387.032C577.149 384.55 578.73 358.4 577.18 326.183L577.065 324.017C576.434 313.192 575.002 302.404 573.527 290.611C572.024 278.593 570.428 265.202 570.507 252.191C570.586 239.006 572.354 224.599 578.618 210.654C585.068 196.298 595.539 184.09 610.401 174.434C653.667 146.323 708.511 158.495 733.795 195.982C745.792 213.769 750.544 236.091 752.754 254.608C755.034 273.722 754.996 292.803 754.996 305.859C754.996 340.849 743.071 377.209 740.85 387.281C737.58 402.113 722.906 411.485 708.074 408.215C693.242 404.945 683.869 390.27 687.139 375.439C691.237 356.855 699.996 332.868 699.996 305.859Z" fill="black"/>
<path d="M775.679 55.9014C777.39 40.8103 791.012 29.9635 806.103 31.6748C861.686 37.9781 912.508 66.4413 948.583 101.195L949.352 101.941C965.481 117.72 981.573 140.997 994.061 164.946C1006.65 189.087 1017.26 217.119 1019.4 242.151L1019.52 243.521C1021.81 272.471 1019.19 312.61 1000.94 346.869C991.449 364.676 977.561 381.175 957.871 393.105C938.154 405.052 914.13 411.5 885.817 411.5C854.445 411.5 826.827 396.022 807.255 376.077C787.739 356.189 773.542 329.213 771.109 301.397L771.015 300.273C769.122 276.67 772.608 252.325 782.326 231.739C792.281 210.652 809.821 191.78 835.878 185.311C858.763 179.629 879.897 180.911 897.673 189.509C915.466 198.115 927.107 212.722 933.202 228.423C944.318 257.056 938.889 297.715 908.268 317.201C895.455 325.355 878.457 321.577 870.303 308.764C862.149 295.95 865.927 278.954 878.741 270.8C879.669 270.209 881.754 268.181 882.918 263.352C884.069 258.58 883.755 253.027 881.931 248.327C880.214 243.903 877.448 240.823 873.726 239.022C869.987 237.214 862.496 235.371 849.131 238.689C843.197 240.163 836.985 244.792 832.063 255.219C827.215 265.489 824.658 279.64 825.78 295.103L825.9 296.603V296.604C827.039 309.632 834.343 325.155 846.511 337.556C858.624 349.899 872.875 356.5 885.817 356.5C905.597 356.5 919.457 352.073 929.37 346.066C939.311 340.043 946.801 331.511 952.399 321.006C963.663 299.866 966.445 272.103 964.78 249.063L964.605 246.849C963.341 232.102 956.302 211.488 945.293 190.376C934.724 170.106 922.062 152.369 911.446 141.805L910.425 140.805C881.362 112.806 841.322 91.022 799.906 86.3252C784.814 84.6139 773.968 70.9924 775.679 55.9014Z" fill="black"/>
<path d="M1259.93 202.273C1263.1 187.419 1277.7 177.94 1292.56 181.103C1307.41 184.265 1316.89 198.872 1313.73 213.727C1301.9 269.252 1309.05 331.884 1320.72 391.779C1323.63 406.686 1313.9 421.126 1298.99 424.031C1284.08 426.936 1269.64 417.206 1266.74 402.299C1254.77 340.885 1245.7 269.14 1259.93 202.273Z" fill="black"/>
<path d="M1260.42 90.7285C1271.61 80.4658 1289.01 81.2222 1299.27 92.418C1303.7 97.2522 1310.18 106.501 1314.94 113.737C1317.53 117.678 1320.11 121.774 1322.21 125.38C1323.25 127.166 1324.3 129.068 1325.22 130.906C1325.86 132.186 1327.44 135.374 1328.39 139.085C1332.12 153.806 1323.21 168.769 1308.49 172.504C1294.65 176.017 1280.59 168.345 1275.86 155.171C1275.61 154.704 1275.22 153.993 1274.66 153.022C1273.24 150.577 1271.24 147.39 1268.99 143.975C1266.76 140.586 1264.44 137.21 1262.42 134.412C1261.41 133.014 1260.53 131.839 1259.81 130.925C1259.04 129.932 1258.7 129.552 1258.73 129.582C1248.47 118.386 1249.22 100.991 1260.42 90.7285ZM1275.07 152.611C1275.12 152.783 1275.16 152.948 1275.21 153.108C1275.16 152.943 1275.12 152.778 1275.07 152.611Z" fill="black"/>
<path d="M1458.31 49.5059C1476.94 41.8137 1496.55 40.2921 1514.3 48.4619C1531.73 56.4889 1542.42 71.6148 1548.24 87.1611C1559.57 117.439 1555.99 157.405 1541.19 192.985C1520.67 242.312 1482.75 302.061 1421.74 325.473C1411.67 329.339 1401.75 331.588 1392.94 332.924C1393.7 339.614 1394.55 343.731 1395.02 345.537L1395.02 345.545C1404.36 381.375 1414.63 396.064 1421.1 401.332C1424.8 404.345 1428.2 405.412 1436.21 402.16C1445.9 398.226 1457.65 389.269 1470.97 376.461C1484.48 363.474 1495.51 350.757 1507.52 338.32C1518.07 327.397 1535.48 327.095 1546.41 337.646C1557.33 348.198 1557.63 365.607 1547.08 376.531C1537.84 386.095 1523.26 402.489 1509.09 416.11C1494.74 429.911 1476.74 445.061 1456.9 453.119C1435.38 461.86 1409.47 462.804 1386.35 443.967C1366.01 427.386 1351.98 398.5 1341.8 359.417L1341.5 358.222C1338.35 345.382 1334.53 317.219 1337.59 269.905C1339.44 241.229 1350.14 195.576 1368.69 153.478C1386.65 112.704 1415.49 67.1843 1458.31 49.5068L1458.31 49.5059ZM1491.29 98.4199C1491.05 98.3083 1487.91 96.7876 1479.29 100.345V100.344C1457.38 109.39 1435.95 137.238 1419.02 175.655C1402.67 212.748 1393.85 252.108 1392.47 273.451V273.453C1392.39 274.689 1392.32 275.908 1392.25 277.109C1395.5 276.345 1398.79 275.372 1402.04 274.124L1402.97 273.762C1442.16 258.245 1471.91 216.335 1490.41 171.864V171.862C1501.61 144.945 1501.77 119.912 1496.73 106.44C1494.36 100.112 1491.84 98.6743 1491.29 98.4199Z" fill="black"/>
<path d="M1076.12 183.148C1102.3 159.878 1139.54 149.407 1179.56 168.566H1179.56C1202.31 179.461 1218.69 195.979 1227.33 216.007C1235.91 235.887 1236.03 257.336 1229.61 276.623C1224.34 292.458 1214.79 306.744 1201.88 318.105C1206.11 321.326 1210.16 324.942 1213.85 329.005C1240.58 358.418 1245.77 393.631 1241.86 432.736C1240.35 447.849 1226.88 458.874 1211.76 457.363C1196.65 455.852 1185.63 442.376 1187.14 427.264C1190.23 396.369 1185.32 379.388 1173.15 365.995L1173.15 365.992C1166.51 358.687 1153.84 352.856 1140.18 348.931C1133.94 347.136 1128.53 346.024 1124.94 345.312C1124.36 345.196 1120.82 344.547 1118.6 343.87C1118.1 343.719 1116.96 343.362 1115.58 342.771C1115.52 342.746 1110.23 340.739 1105.74 335.649C1103.1 332.656 1097.86 325.232 1099.02 314.483C1100.18 303.771 1106.85 297.657 1110.02 295.317C1115.43 291.311 1120.98 290.447 1121.06 290.432C1123.48 289.947 1125.54 289.89 1125.78 289.881C1126.51 289.852 1127.17 289.848 1127.64 289.848C1155.98 289.848 1172.48 274.123 1177.42 259.265C1179.92 251.752 1179.64 244.304 1176.83 237.792C1174.09 231.427 1168.09 224.057 1155.8 218.172V218.173C1138.45 209.863 1124.62 213.617 1112.65 224.257C1099.28 236.146 1089.37 256.381 1087.17 276.12L1087.17 276.121C1082.73 316.084 1087.78 348.671 1106.38 384.56C1113.36 398.045 1108.1 414.641 1094.61 421.629C1081.13 428.616 1064.53 423.349 1057.54 409.864C1033.48 363.425 1026.99 319.768 1032.51 270.051V270.047C1036.01 238.522 1051.34 205.167 1076.12 183.148ZM1127.64 344.848C1126.91 344.848 1127.05 344.872 1127.71 344.847C1127.68 344.847 1127.66 344.848 1127.64 344.848Z" fill="black"/>
</g>
<defs>
<clipPath id="clip0_70_121">
<rect width="1555" height="461" fill="white"/>
</clipPath>
</defs>
</svg>
