<svg width="70" height="21" viewBox="0 0 70 21" fill="none" xmlns="http://www.w3.org/2000/svg">
<g clip-path="url(#clip0_71_138)">
<path d="M1.05291 3.34824C2.46578 1.74835 4.9835 1.10471 7.462 1.9433C8.64462 2.34345 9.7621 3.1016 10.7036 4.0992C11.8754 5.4395 12.3819 6.46108 12.9191 7.77875C13.1295 8.39367 13.281 9.03269 13.3634 9.68501C13.7338 12.6178 13.2303 15.2322 12.6495 17.0935C12.3578 18.0282 12.0424 18.7866 11.7964 19.3178C11.6732 19.5838 11.5667 19.794 11.4886 19.9422C11.4494 20.0163 11.4173 20.0751 11.3936 20.1177C11.3817 20.139 11.372 20.1562 11.3644 20.1693C11.3607 20.1759 11.3575 20.1814 11.3549 20.1859C11.3536 20.1881 11.3525 20.1901 11.3515 20.1918C11.351 20.1926 11.3505 20.1935 11.3501 20.1942C11.3499 20.1945 11.3495 20.195 11.3495 20.1952C11.3488 20.1954 11.3268 20.1829 9.99375 19.3829L11.3489 20.1961C10.9051 20.9535 9.93847 21.2033 9.19003 20.7542C8.45361 20.3122 8.20274 19.3581 8.61783 18.6061L8.63764 18.5712C8.63737 18.5717 8.63714 18.5721 8.63692 18.5724C8.63656 18.5731 8.63624 18.5736 8.63615 18.5737C8.63597 18.5741 8.63633 18.5734 8.63719 18.5719C8.63904 18.5687 8.64309 18.5616 8.64916 18.5507C8.66132 18.5289 8.68167 18.4918 8.70886 18.4403C8.76328 18.3371 8.84494 18.1764 8.94316 17.9643C9.14002 17.5394 9.40134 16.913 9.6446 16.1333C10.1338 14.5658 10.5336 12.4322 10.2377 10.0893C10.215 9.91018 10.1847 9.7332 10.1473 9.55878C9.49132 9.95145 8.68864 10.3539 7.80219 10.6267C6.07933 11.1569 3.84801 11.2416 1.86193 9.59759C0.818933 8.73427 0.150771 7.6573 0.0222913 6.45652C-0.106419 5.25351 0.33343 4.16297 1.05291 3.34824ZM17.5953 0.164633C21.1957 -0.499107 23.7406 0.95463 25.3188 2.54932C26.0916 3.33016 26.6357 4.14285 26.9866 4.75584C27.1633 5.06455 27.2945 5.32881 27.3839 5.52191C27.4286 5.61862 27.4632 5.69802 27.4879 5.75682C27.5003 5.78621 27.5102 5.81053 27.5177 5.82939C27.5215 5.83878 27.5247 5.84684 27.5273 5.85344C27.5286 5.85672 27.5298 5.85973 27.5308 5.86233C27.5312 5.8636 27.5317 5.86483 27.5321 5.86592C27.5324 5.86647 27.5327 5.86725 27.5328 5.86752C27.533 5.86829 27.5229 5.87308 26.0698 6.44367L27.5334 5.86902C27.8481 6.68989 27.4457 7.61362 26.6344 7.93217C25.8237 8.2505 24.9114 7.84384 24.5962 7.02384C24.5962 7.02407 24.5965 7.02475 24.5966 7.02512C24.5969 7.02584 24.5971 7.02657 24.5974 7.02717C24.5978 7.0283 24.5982 7.02917 24.5984 7.02967C24.5983 7.02949 24.5982 7.02922 24.5981 7.02894C24.5968 7.02584 24.5935 7.01764 24.5881 7.00475C24.5773 6.97902 24.5581 6.93465 24.5303 6.87461C24.4746 6.75421 24.3852 6.573 24.2598 6.35407C24.0067 5.91184 23.6214 5.34038 23.0923 4.80577C22.0667 3.76953 20.5182 2.86699 18.1601 3.30171C16.6169 3.58621 15.8535 4.17575 15.0729 5.0082C14.7243 5.37996 14.3148 5.88109 13.8174 6.43816C13.3935 5.50145 12.8959 4.62542 12.0703 3.61386C12.2933 3.35617 12.5268 3.09078 12.7871 2.81325C13.9094 1.6164 15.2428 0.598337 17.5953 0.164633ZM6.46273 4.96748C5.0061 4.47461 3.86236 4.95231 3.40254 5.47298C3.18571 5.71856 3.13639 5.93817 3.15513 6.11332C3.17412 6.29075 3.29005 6.6601 3.85705 7.12943C4.75734 7.87464 5.7779 7.91673 6.8853 7.5759C7.57913 7.36239 8.2293 7.01641 8.75711 6.68205C8.07908 5.8472 7.25628 5.23597 6.46273 4.96748Z" fill="black"/>
<path d="M18.7466 7.44952C19.7935 7.16312 21.1067 7.19173 22.1256 8.11912H22.1256C23.4948 9.36534 24.075 11.295 22.96 12.9639C22.0076 14.3892 20.0744 15.1882 17.4839 15.2878C17.7679 16.1264 18.4299 16.7571 19.2355 16.8008H19.2355C20.3213 16.8596 20.9966 16.6037 21.4932 16.2435C22.0293 15.8545 22.4612 15.2705 22.9342 14.4782C23.2877 13.8861 24.0487 13.696 24.6339 14.0537C25.2191 14.4115 25.4069 15.1816 25.0533 15.7738C24.5418 16.6306 23.8976 17.5818 22.9358 18.2796C21.9344 19.0062 20.6898 19.3885 19.1032 19.3026H19.1031C16.6555 19.17 15.2686 17.0914 14.9482 15.3561L14.9482 15.3561C14.7387 14.2215 14.6785 13.0774 14.8192 12.0328C14.9587 10.9973 15.3081 9.97486 15.994 9.18744C16.6919 8.38618 17.6958 7.73703 18.7466 7.44952ZM20.4699 9.9819C20.2958 9.82346 19.964 9.71185 19.3928 9.86811C18.8257 10.0233 18.2385 10.3996 17.8513 10.8441V10.8442C17.5913 11.1426 17.3709 11.6405 17.2725 12.3711C17.2544 12.5056 17.2408 12.6451 17.2318 12.7892C19.5777 12.7327 20.5917 12.0353 20.9089 11.5606C21.1409 11.2134 21.1912 10.6576 20.5032 10.0127L20.4699 9.9819Z" fill="black"/>
<path d="M31.511 13.9328C31.511 13.3204 31.5102 12.5957 31.4276 11.895C31.3417 11.1671 31.1843 10.6352 30.9799 10.3285C30.6292 9.80242 29.6906 9.479 28.8268 10.0469C28.5305 10.2417 28.3886 10.4356 28.3055 10.6227C28.2141 10.8286 28.1602 11.1045 28.1578 11.5031C28.1554 11.9096 28.2052 12.3658 28.2746 12.9273C28.3368 13.4298 28.4144 14.0157 28.4491 14.6176L28.4554 14.7382V14.7383C28.5258 16.2188 28.461 17.6447 28.457 17.6356L28.4569 17.6305L28.4564 17.6628C28.4395 18.3397 27.8919 18.8832 27.2189 18.8832C26.5459 18.8832 25.9983 18.3397 25.9814 17.6628L25.981 17.6305C25.981 17.5175 26.0521 16.3263 25.9824 14.8586L25.9772 14.76C25.9488 14.2669 25.8843 13.7754 25.8179 13.2383C25.7502 12.6908 25.6784 12.0808 25.6819 11.4881C25.6855 10.8874 25.7651 10.2312 26.0471 9.59596C26.3374 8.94198 26.8088 8.38588 27.4778 7.946C29.4255 6.66547 31.8944 7.21996 33.0325 8.92757C33.5726 9.73782 33.7865 10.7547 33.886 11.5982C33.9887 12.4689 33.9869 13.3381 33.9869 13.9328C33.9869 15.5267 33.4501 17.1831 33.3502 17.6419C33.2029 18.3175 32.5423 18.7444 31.8747 18.5955C31.207 18.4465 30.7851 17.778 30.9323 17.1024C31.1167 16.2559 31.511 15.1632 31.511 13.9328Z" fill="black"/>
<path d="M34.918 2.5465C34.9951 1.85906 35.6082 1.36495 36.2876 1.44291C38.7897 1.73004 41.0775 3.02663 42.7015 4.60978L42.7361 4.64377C43.4622 5.36255 44.1866 6.42288 44.7487 7.51384C45.3154 8.61354 45.793 9.89049 45.8896 11.0308L45.8947 11.0932C45.9981 12.4119 45.88 14.2404 45.0583 15.801C44.6312 16.6122 44.006 17.3638 43.1196 17.9072C42.232 18.4514 41.1505 18.7451 39.876 18.7451C38.4638 18.7451 37.2205 18.0401 36.3395 17.1315C35.4609 16.2255 34.8218 14.9967 34.7123 13.7296L34.7081 13.6784C34.6229 12.6032 34.7798 11.4942 35.2173 10.5565C35.6654 9.59587 36.455 8.73621 37.628 8.4415C38.6581 8.18268 39.6095 8.24109 40.4097 8.63274C41.2107 9.02476 41.7347 9.69018 42.0091 10.4054C42.5095 11.7097 42.2651 13.5619 40.8867 14.4495C40.3099 14.821 39.5447 14.6489 39.1776 14.0652C38.8106 13.4815 38.9807 12.7072 39.5575 12.3358C39.5992 12.3089 39.6931 12.2165 39.7455 11.9965C39.7973 11.7791 39.7832 11.5262 39.7011 11.3121C39.6238 11.1106 39.4993 10.9703 39.3317 10.8882C39.1634 10.8059 38.8262 10.7219 38.2246 10.8731C37.9574 10.9402 37.6778 11.1511 37.4562 11.626C37.238 12.0939 37.1229 12.7385 37.1734 13.4429L37.1788 13.5112V13.5112C37.2301 14.1047 37.5588 14.8119 38.1066 15.3767C38.6519 15.939 39.2934 16.2397 39.876 16.2397C40.7664 16.2397 41.3904 16.038 41.8366 15.7644C42.2841 15.4901 42.6213 15.1014 42.8733 14.6228C43.3803 13.6598 43.5055 12.3952 43.4306 11.3456L43.4227 11.2448C43.3658 10.573 43.049 9.63396 42.5534 8.67224C42.0776 7.74889 41.5076 6.9409 41.0297 6.45967L40.9838 6.41412C39.6755 5.13871 37.873 4.14636 36.0086 3.9324C35.3293 3.85445 34.841 3.23395 34.918 2.5465Z" fill="black"/>
<path d="M56.7172 9.21417C56.8596 8.53749 57.5171 8.10569 58.1858 8.24977C58.8545 8.39385 59.2812 9.05921 59.1388 9.73589C58.6066 12.2652 58.9283 15.1183 59.4537 17.8468C59.5845 18.5258 59.1465 19.1836 58.4754 19.3159C57.8044 19.4483 57.1543 19.005 57.0235 18.326C56.4848 15.5283 56.0763 12.2601 56.7172 9.21417Z" fill="black"/>
<path d="M56.7391 4.13298C57.2431 3.66548 58.0261 3.69994 58.4881 4.20994C58.6876 4.43016 58.979 4.85149 59.1933 5.18111C59.3101 5.36061 59.4262 5.54721 59.5206 5.71146C59.5673 5.79283 59.615 5.87948 59.6563 5.96321C59.6852 6.02152 59.7563 6.16672 59.7987 6.33577C59.9669 7.00637 59.5659 7.68796 58.9032 7.85811C58.2799 8.01814 57.6471 7.66867 57.4342 7.06854C57.4231 7.04727 57.4055 7.01488 57.3801 6.97067C57.3161 6.85929 57.2264 6.71407 57.1252 6.55851C57.0248 6.40416 56.9202 6.25035 56.8291 6.12291C56.7835 6.0592 56.744 6.00569 56.7119 5.96405C56.6771 5.91884 56.6618 5.90153 56.663 5.90288C56.2011 5.39288 56.2351 4.60048 56.7391 4.13298ZM57.3989 6.95194C57.4008 6.95974 57.4029 6.96728 57.4049 6.97458C57.4028 6.96706 57.4008 6.95953 57.3989 6.95194Z" fill="black"/>
<path d="M65.6473 2.25512C66.4861 1.90472 67.369 1.8354 68.1676 2.20756C68.9523 2.57322 69.4339 3.26225 69.6958 3.97044C70.206 5.34967 70.0447 7.17024 69.3784 8.79106C68.4548 11.0381 66.7475 13.7598 64.0013 14.8263C63.5477 15.0024 63.1012 15.1048 62.7048 15.1657C62.7387 15.4705 62.7771 15.658 62.7983 15.7403L62.7984 15.7406C63.2186 17.3728 63.6813 18.0419 63.9723 18.2819C64.1387 18.4192 64.292 18.4677 64.6524 18.3196C65.0885 18.1404 65.6177 17.7324 66.2175 17.149C66.8256 16.5573 67.3219 15.9781 67.8627 15.4115C68.3377 14.9139 69.1214 14.9002 69.6131 15.3808C70.1049 15.8615 70.1185 16.6545 69.6435 17.1522C69.2277 17.5878 68.5712 18.3346 67.9334 18.9551C67.2872 19.5838 66.4772 20.2739 65.584 20.641C64.615 21.0391 63.4486 21.0821 62.4082 20.2241C61.4923 19.4687 60.8609 18.1529 60.4026 16.3725L60.389 16.3181C60.2475 15.7332 60.0753 14.4503 60.2129 12.295C60.2963 10.9887 60.7779 8.90906 61.613 6.99136C62.4217 5.13401 63.7197 3.06043 65.6472 2.25516L65.6473 2.25512ZM67.132 4.48331C67.1211 4.47822 66.9799 4.40895 66.592 4.57099V4.57095C65.6056 4.98303 64.6407 6.25157 63.8786 8.00162C63.1429 9.69129 62.7457 11.4843 62.6837 12.4565V12.4566C62.6801 12.5129 62.6767 12.5684 62.6736 12.6232C62.82 12.5883 62.9678 12.544 63.1142 12.4872L63.156 12.4707C64.9205 11.7638 66.2597 9.8547 67.0924 7.82893V7.82884C67.5965 6.60265 67.604 5.46235 67.377 4.84867C67.2704 4.56039 67.1569 4.4949 67.132 4.48331Z" fill="black"/>
<path d="M48.4425 8.34295C49.6211 7.28297 51.2977 6.80599 53.099 7.67869H53.099C54.1234 8.17503 54.8608 8.92749 55.2497 9.8398C55.6358 10.7454 55.641 11.7225 55.3522 12.6011C55.1152 13.3224 54.6849 13.9732 54.1037 14.4907C54.2944 14.6374 54.4766 14.8021 54.6428 14.9872C55.8461 16.3271 56.0799 17.9312 55.9038 19.7125C55.8358 20.4009 55.2292 20.9032 54.5489 20.8343C53.8686 20.7655 53.3722 20.1516 53.4402 19.4632C53.5793 18.0559 53.3584 17.2823 52.8106 16.6722L52.8104 16.6721C52.5117 16.3393 51.9414 16.0737 51.3266 15.8949C51.0454 15.8131 50.8021 15.7625 50.6406 15.73C50.6144 15.7248 50.455 15.6952 50.3548 15.6644C50.3325 15.6575 50.2811 15.6412 50.2191 15.6143C50.2165 15.6132 49.9782 15.5217 49.7761 15.2899C49.6573 15.1535 49.4212 14.8154 49.4735 14.3257C49.5257 13.8377 49.8262 13.5592 49.9686 13.4526C50.2123 13.2702 50.4621 13.2308 50.4655 13.2301C50.5745 13.208 50.6676 13.2054 50.6784 13.205C50.7109 13.2037 50.7409 13.2035 50.7619 13.2035C52.0379 13.2035 52.7805 12.4872 53.0029 11.8103C53.1154 11.4681 53.1028 11.1288 52.9764 10.8322C52.8528 10.5422 52.583 10.2065 52.0298 9.93842V9.93847C51.2485 9.55994 50.6262 9.73094 50.0873 10.2156C49.4851 10.7572 49.039 11.679 48.9402 12.5781L48.9402 12.5782C48.7404 14.3986 48.9676 15.8831 49.8047 17.5179C50.1193 18.1322 49.8822 18.8882 49.2751 19.2065C48.6681 19.5248 47.921 19.2849 47.6064 18.6706C46.5232 16.5552 46.2309 14.5664 46.4795 12.3017V12.3015C46.6373 10.8654 47.3272 9.34599 48.4425 8.34295ZM50.7619 15.7089C50.7289 15.7089 50.7352 15.71 50.7649 15.7089C50.7639 15.7089 50.7629 15.7089 50.7619 15.7089Z" fill="black"/>
</g>
<defs>
<clipPath id="clip0_71_138">
<rect width="70" height="21" fill="white"/>
</clipPath>
</defs>
</svg>
